<svg xmlns="http://www.w3.org/2000/svg" viewBox="0 0 720 140" role="img" aria-label="Waveform produced by the spike_event generator"><line x1="10" y1="42.0" x2="710.0" y2="42.0" stroke="#94a3b8" stroke-opacity="0.3" stroke-width="1" stroke-dasharray="2 5"/><line x1="10" y1="70.0" x2="710.0" y2="70.0" stroke="#94a3b8" stroke-opacity="0.3" stroke-width="1" stroke-dasharray="2 5"/><line x1="10" y1="98.0" x2="710.0" y2="98.0" stroke="#94a3b8" stroke-opacity="0.3" stroke-width="1" stroke-dasharray="2 5"/><path d="M10.0 21.7 H12.9 V21.7 H15.9 V21.7 H18.8 V21.7 H21.7 V21.7 H24.6 V21.7 H27.6 V21.7 H30.5 V21.7 H33.4 V21.7 H36.4 V21.7 H39.3 V21.7 H42.2 V21.7 H45.1 V118.3 H48.1 V118.3 H51.0 V118.3 H53.9 V118.3 H56.9 V118.3 H59.8 V118.3 H62.7 V118.3 H65.6 V118.3 H68.6 V118.3 H71.5 V118.3 H74.4 V118.3 H77.4 V118.3 H80.3 V118.3 H83.2 V118.3 H86.2 V118.3 H89.1 V118.3 H92.0 V118.3 H94.9 V118.3 H97.9 V118.3 H100.8 V118.3 H103.7 V118.3 H106.7 V118.3 H109.6 V118.3 H112.5 V118.3 H115.4 V118.3 H118.4 V118.3 H121.3 V118.3 H124.2 V118.3 H127.2 V118.3 H130.1 V118.3 H133.0 V118.3 H135.9 V118.3 H138.9 V118.3 H141.8 V118.3 H144.7 V118.3 H147.7 V118.3 H150.6 V118.3 H153.5 V118.3 H156.4 V118.3 H159.4 V118.3 H162.3 V118.3 H165.2 V118.3 H168.2 V118.3 H171.1 V118.3 H174.0 V118.3 H176.9 V118.3 H179.9 V118.3 H182.8 V118.3 H185.7 V118.3 H188.7 V118.3 H191.6 V118.3 H194.5 V118.3 H197.4 V118.3 H200.4 V118.3 H203.3 V118.3 H206.2 V118.3 H209.2 V118.3 H212.1 V118.3 H215.0 V118.3 H217.9 V118.3 H220.9 V118.3 H223.8 V118.3 H226.7 V118.3 H229.7 V118.3 H232.6 V118.3 H235.5 V118.3 H238.5 V118.3 H241.4 V118.3 H244.3 V21.7 H247.2 V21.7 H250.2 V21.7 H253.1 V21.7 H256.0 V21.7 H259.0 V21.7 H261.9 V21.7 H264.8 V21.7 H267.7 V21.7 H270.7 V21.7 H273.6 V21.7 H276.5 V21.7 H279.5 V118.3 H282.4 V118.3 H285.3 V118.3 H288.2 V118.3 H291.2 V118.3 H294.1 V118.3 H297.0 V118.3 H300.0 V118.3 H302.9 V118.3 H305.8 V118.3 H308.7 V118.3 H311.7 V118.3 H314.6 V118.3 H317.5 V118.3 H320.5 V118.3 H323.4 V118.3 H326.3 V118.3 H329.2 V118.3 H332.2 V118.3 H335.1 V118.3 H338.0 V118.3 H341.0 V118.3 H343.9 V118.3 H346.8 V118.3 H349.7 V118.3 H352.7 V118.3 H355.6 V118.3 H358.5 V118.3 H361.5 V118.3 H364.4 V118.3 H367.3 V118.3 H370.3 V118.3 H373.2 V118.3 H376.1 V118.3 H379.0 V118.3 H382.0 V118.3 H384.9 V118.3 H387.8 V118.3 H390.8 V118.3 H393.7 V118.3 H396.6 V118.3 H399.5 V118.3 H402.5 V118.3 H405.4 V118.3 H408.3 V118.3 H411.3 V118.3 H414.2 V118.3 H417.1 V118.3 H420.0 V118.3 H423.0 V118.3 H425.9 V118.3 H428.8 V118.3 H431.8 V118.3 H434.7 V118.3 H437.6 V118.3 H440.5 V118.3 H443.5 V118.3 H446.4 V118.3 H449.3 V118.3 H452.3 V118.3 H455.2 V118.3 H458.1 V118.3 H461.0 V118.3 H464.0 V118.3 H466.9 V118.3 H469.8 V118.3 H472.8 V118.3 H475.7 V118.3 H478.6 V21.7 H481.5 V21.7 H484.5 V21.7 H487.4 V21.7 H490.3 V21.7 H493.3 V21.7 H496.2 V21.7 H499.1 V21.7 H502.1 V21.7 H505.0 V21.7 H507.9 V21.7 H510.8 V21.7 H513.8 V118.3 H516.7 V118.3 H519.6 V118.3 H522.6 V118.3 H525.5 V118.3 H528.4 V118.3 H531.3 V118.3 H534.3 V118.3 H537.2 V118.3 H540.1 V118.3 H543.1 V118.3 H546.0 V118.3 H548.9 V118.3 H551.8 V118.3 H554.8 V118.3 H557.7 V118.3 H560.6 V118.3 H563.6 V118.3 H566.5 V118.3 H569.4 V118.3 H572.3 V118.3 H575.3 V118.3 H578.2 V118.3 H581.1 V118.3 H584.1 V118.3 H587.0 V118.3 H589.9 V118.3 H592.8 V118.3 H595.8 V118.3 H598.7 V118.3 H601.6 V118.3 H604.6 V118.3 H607.5 V118.3 H610.4 V118.3 H613.3 V118.3 H616.3 V118.3 H619.2 V118.3 H622.1 V118.3 H625.1 V118.3 H628.0 V118.3 H630.9 V118.3 H633.8 V118.3 H636.8 V118.3 H639.7 V118.3 H642.6 V118.3 H645.6 V118.3 H648.5 V118.3 H651.4 V118.3 H654.4 V118.3 H657.3 V118.3 H660.2 V118.3 H663.1 V118.3 H666.1 V118.3 H669.0 V118.3 H671.9 V118.3 H674.9 V118.3 H677.8 V118.3 H680.7 V118.3 H683.6 V118.3 H686.6 V118.3 H689.5 V118.3 H692.4 V118.3 H695.4 V118.3 H698.3 V118.3 H701.2 V118.3 H704.1 V118.3 H707.1 V118.3 H710.0 V118.3" fill="none" stroke="#f97316" stroke-width="2.2" stroke-linejoin="round" stroke-linecap="round"/></svg>
